<svg width="256" height="256" viewBox="0 0 1024 1024" xmlns="http://www.w3.org/2000/svg" xmlns:xlink="http://www.w3.org/1999/xlink" overflow="hidden"><path d="M951.917 0 279.524 0C245.661 0 217.679 27.7798 217.679 61.8455L217.679 148.024 783.413 148.024C817.479 148.024 845.259 175.804 845.259 209.869L845.259 987.501 951.714 987.501C985.78 987.501 1013.56 959.721 1013.56 925.655L1013.56 61.8455C1013.76 27.7798 985.78 0 951.917 0Z" stroke="none" stroke-width="1" stroke-linecap="butt" fill="#FFFFFF" fill-opacity="1"/><path d="M717.107 188.578 62.5577 188.578C28.6948 188.578 0.712192 216.358 0.712192 250.424L0.712192 962.154C0.712192 996.22 28.6948 1024 62.5577 1024L717.107 1024C751.172 1024 778.952 996.22 778.952 962.154L778.952 250.424C778.952 216.358 751.172 188.578 717.107 188.578ZM586.319 829.339 174.691 829.339C157.861 829.339 144.275 815.55 144.275 798.923 144.275 782.295 158.063 768.507 174.691 768.507L586.319 768.507C603.149 768.507 616.734 782.295 616.734 798.923 616.734 815.55 603.149 829.339 586.319 829.339ZM586.319 636.705 174.691 636.705C157.861 636.705 144.275 622.916 144.275 606.289 144.275 589.662 158.063 575.873 174.691 575.873L586.319 575.873C603.149 575.873 616.734 589.662 616.734 606.289 616.734 622.916 603.149 636.705 586.319 636.705ZM586.319 444.071 174.691 444.071C157.861 444.071 144.275 430.283 144.275 413.655 144.275 397.028 158.063 383.24 174.691 383.24L586.319 383.24C603.149 383.24 616.734 397.028 616.734 413.655 616.734 430.283 603.149 444.071 586.319 444.071Z" stroke="none" stroke-width="1" stroke-linecap="butt" fill="#FFFFFF" fill-opacity="1"/></svg>