<svg width="256" height="256" viewBox="0 0 1024 1024" xmlns="http://www.w3.org/2000/svg" xmlns:xlink="http://www.w3.org/1999/xlink" overflow="hidden"><path d="M809.5 411.6 792.4 428.7 768.3 426.3 734.7 423 709.2 448.5 691 466.8C694.6 481.2 696.7 496.1 696.7 511.5 696.7 613.4 613.8 696.3 511.9 696.3 410 696.3 327.1 613.4 327.1 511.5 327.1 409.6 410 326.7 511.9 326.7 541.5 326.7 569.5 333.8 594.3 346.3L600.6 340 626.1 314.5 622.8 280.9 620.4 256.8 637.5 239.7 692.5 184.7C639 155 577.5 138 511.9 138 305.6 138 138.3 305.3 138.3 511.6 138.3 717.9 305.6 885.2 511.9 885.2 718.2 885.2 885.5 717.9 885.5 511.6 885.5 459.8 874.3 410.9 855.2 366.1L809.5 411.6Z" stroke="none" stroke-width="1" stroke-linecap="butt" fill="#FFFFFF" fill-opacity="1"/><path d="M679.4 333.6 636.8 376.2 587 426C566.8 408.3 540.7 397.1 511.8 397.1 448.7 397.1 397.4 448.4 397.4 511.5 397.4 574.6 448.8 626 511.9 626 575 626 626.3 574.6 626.3 511.5 626.3 496 623.1 481.3 617.5 467.8L715.5 369.8 773.2 375.5 886.3 262.4 795.7 253.5 786.8 162.9 673.8 275.9 679.4 333.6Z" stroke="none" stroke-width="1" stroke-linecap="butt" fill="#FFFFFF" fill-opacity="1"/></svg>